<?xml version="1.0" encoding="utf-8"?>
<!-- Generator: Adobe Illustrator 16.0.0, SVG Export Plug-In . SVG Version: 6.00 Build 0)  -->
<!DOCTYPE svg PUBLIC "-//W3C//DTD SVG 1.1//EN" "http://www.w3.org/Graphics/SVG/1.1/DTD/svg11.dtd">
<svg version="1.1" id="图层_1" xmlns="http://www.w3.org/2000/svg" xmlns:xlink="http://www.w3.org/1999/xlink" x="0px" y="0px"
	 width="30px" height="30px" viewBox="0 0 30 30" enable-background="new 0 0 30 30" xml:space="preserve">
<path fill="#FFFFFF" d="M28.771,12.628c0-1.703,0.143-3.592-0.508-4.645c-0.383-0.614-1.089-1.234-1.783-1.526
	c-0.336-0.142-0.891-0.061-1.207-0.254c-1.125,0-2.25,0-3.373,0c-0.199-0.111-0.447-1.288-0.57-1.591
	c-0.352-0.853-0.936-1.56-1.785-1.909c-0.66-0.272-1.867-0.127-2.732-0.127c-1.953,0-3.903,0-5.854,0
	C10.78,2.7,10.544,2.669,10.323,2.767c-0.263,0.116-0.589,0.39-0.828,0.572C8.792,3.876,8.53,5.354,8.158,6.202
	C4.76,6.18,2.556,6.082,1.541,8.492c-0.527,1.254-0.254,4.021-0.254,5.726c0,2.12,0,4.241,0,6.361c0,1.043-0.144,2.329,0.127,3.183
	c0.419,1.315,1.467,2.264,2.864,2.608c5.831,0,11.664,0,17.496,0c2.471,0,4.979,0.252,6.043-1.146
	c1.047-1.379,0.955-2.849,0.955-5.281C28.771,17.505,28.771,15.065,28.771,12.628z M14.457,23.379
	c-0.069,0.059-0.006-0.004-0.065,0.064c-0.788-0.033-1.445-0.332-2.035-0.573c-2.147-0.874-3.712-2.002-4.454-4.265
	C7.354,16.932,7.79,13.68,8.73,12.755c-0.067-0.33-1.166-1.09-1.463-1.273c0-0.042,0-0.085,0-0.127
	c1.086-0.533,2.223-0.902,3.372-1.4c0.693-0.301,1.433-0.789,2.227-0.954c0.059,0.057,0.111,0.085,0.191,0.127
	c-0.06,1.189-0.254,2.474-0.509,3.562c-0.131,0.56,0.02,1.338-0.254,1.782c-0.009,0.245,0.002,0.271-0.127,0.381
	c-0.091,0.06-1.376-0.819-1.527-1.018c-0.601,0.305-1.091,2.956-0.764,4.072c0.593,2.016,2.501,3.505,4.961,3.625
	C14.709,22.148,14.582,22.764,14.457,23.379z M21.898,21.025c-0.864,0.373-1.806,0.832-2.674,1.209
	c-0.494,0.218-1.136,0.304-1.524,0.636c-0.147-0.021-0.159-0.029-0.255-0.063c0.013-1.211,0.207-2.332,0.445-3.371
	c0.137-0.6-0.033-1.379,0.256-1.845c0-0.305,0.035-0.403,0.127-0.573c0.67,0.133,1.086,0.793,1.654,1.08
	c0.24-0.511,0.469-1.068,0.635-1.652c0.779-2.755-0.988-4.566-2.607-5.408c-0.543-0.282-1.616-0.741-2.29-0.636
	c0-0.021,0-0.042,0-0.063c-0.103-0.17,0.336-1.528,0.381-1.909c0.739,0.053,1.403,0.341,1.974,0.573
	c2.191,0.892,3.695,1.956,4.518,4.199c0.604,1.656,0.146,5.02-0.827,5.979c0.123,0.338,1.138,1.008,1.464,1.209
	C23.004,20.799,22.313,20.848,21.898,21.025z"/>
</svg>
