<?xml version="1.0" encoding="utf-8"?>
<!-- Generator: Adobe Illustrator 16.0.0, SVG Export Plug-In . SVG Version: 6.00 Build 0)  -->
<!DOCTYPE svg PUBLIC "-//W3C//DTD SVG 1.1//EN" "http://www.w3.org/Graphics/SVG/1.1/DTD/svg11.dtd">
<svg version="1.1" id="图层_1" xmlns="http://www.w3.org/2000/svg" xmlns:xlink="http://www.w3.org/1999/xlink" x="0px" y="0px"
	 width="30px" height="30px" viewBox="0 0 30 30" enable-background="new 0 0 30 30" xml:space="preserve">
<path fill-rule="evenodd" clip-rule="evenodd" fill="#030000" d="M18.192,2.63c1.407,0.003,3.382,0.917,4.31,1.484
	c2.646,1.621,4.452,3.495,5.696,6.512c0.275,0.666,0.328,1.304,0.527,2.059c0.351,1.335,0.441,3.673,0.048,5.075
	c-1.177,4.188-2.847,6.444-6.177,8.475c-1.069,0.652-2.806,1.483-4.404,1.531c0-0.591,0-1.182,0-1.771c0.032,0,0.064,0,0.095,0
	c0.191-0.142,0.459-0.106,0.72-0.191c0.6-0.195,1.239-0.416,1.819-0.67c1.489-0.651,3.201-1.926,4.116-3.16
	c0.918-1.236,1.588-2.606,2.059-4.309c0.168-0.605,0.047-1.183,0.191-1.867c0.14-0.655,0.04-1.623-0.095-2.203
	c-0.121-0.518-0.09-0.92-0.24-1.388c-0.461-1.441-1.088-2.557-1.866-3.639c-0.382-0.529-0.825-1.143-1.341-1.532
	c-0.941-0.709-1.913-1.417-3.064-1.915c-0.51-0.176-1.021-0.351-1.532-0.527c-0.271-0.087-0.605-0.045-0.814-0.191
	C18.099,4.181,18.187,3,18.192,2.63z"/>
<path fill-rule="evenodd" clip-rule="evenodd" fill="#030000" d="M13.644,4.402c2.21,0.022,1.819,2.522,1.819,4.74
	c0,4.165,0,8.331,0,12.495c0,2.164,0.295,4.351-1.868,4.357c-0.368-0.452-1.087-0.726-1.58-1.054
	c-1.021-0.679-2.044-1.425-3.064-2.106c-0.229-0.153-1.506-0.866-1.58-1.006c0-4.419,0-8.841,0-13.261
	C7.81,8.356,8.179,8.013,8.569,7.753c0.917-0.612,1.828-1.219,2.729-1.82C11.979,5.479,13.109,4.96,13.644,4.402z"/>
<path fill-rule="evenodd" clip-rule="evenodd" fill="#030000" d="M18.192,19.627c2.205-0.257,4.334-3.025,3.446-5.746
	c-0.509-1.563-1.723-2.759-3.446-3.111c0-0.575,0-1.149,0-1.724c0.052-0.044,0.004,0.004,0.047-0.048
	c2.355,0.452,4.057,1.814,4.885,3.782c1.725,4.099-1.346,8.186-4.885,8.618C18.091,20.952,18.188,20.164,18.192,19.627z"/>
<path fill-rule="evenodd" clip-rule="evenodd" fill="#030000" d="M5.505,9.812c0,3.59,0,7.182,0,10.772
	C3.881,20.6,2.018,20.811,1.34,19.866c-0.405-0.563-0.335-1.563-0.335-2.537c0-1.469,0-2.937,0-4.406
	c0-1.27-0.008-2.254,0.718-2.776C2.466,9.612,4.257,9.8,5.505,9.812z"/>
</svg>
