<?xml version="1.0" encoding="utf-8"?>
<!-- Generator: Adobe Illustrator 16.0.0, SVG Export Plug-In . SVG Version: 6.00 Build 0)  -->
<!DOCTYPE svg PUBLIC "-//W3C//DTD SVG 1.1//EN" "http://www.w3.org/Graphics/SVG/1.1/DTD/svg11.dtd">
<svg version="1.1" id="图层_1" xmlns="http://www.w3.org/2000/svg" xmlns:xlink="http://www.w3.org/1999/xlink" x="0px" y="0px"
	 width="30px" height="30px" viewBox="0 0 30 30" enable-background="new 0 0 30 30" xml:space="preserve">
<path fill="#FFFFFF" d="M18.191,2.63c1.408,0.003,3.383,0.917,4.311,1.484c2.646,1.621,4.452,3.495,5.696,6.512
	c0.274,0.666,0.327,1.304,0.526,2.059c0.352,1.335,0.441,3.672,0.049,5.075c-1.178,4.188-2.848,6.444-6.178,8.475
	c-1.068,0.652-2.806,1.483-4.404,1.531c0-0.591,0-1.182,0-1.771c0.033,0,0.064,0,0.096,0c0.191-0.142,0.459-0.106,0.72-0.19
	c0.601-0.195,1.239-0.416,1.819-0.671c1.488-0.651,3.201-1.926,4.115-3.159c0.918-1.236,1.588-2.606,2.06-4.31
	c0.168-0.604,0.047-1.183,0.19-1.867c0.141-0.655,0.041-1.623-0.094-2.203c-0.121-0.518-0.091-0.92-0.24-1.388
	c-0.461-1.441-1.088-2.557-1.866-3.639c-0.382-0.529-0.825-1.143-1.341-1.532c-0.941-0.709-1.914-1.417-3.064-1.915
	c-0.51-0.176-1.021-0.351-1.531-0.527c-0.271-0.087-0.605-0.045-0.814-0.191C18.1,4.181,18.188,3,18.191,2.63z"/>
<path fill="#FFFFFF" d="M13.644,4.402c2.209,0.022,1.819,2.522,1.819,4.74c0,4.165,0,8.331,0,12.495
	c0,2.164,0.295,4.352-1.868,4.357c-0.368-0.452-1.087-0.727-1.58-1.055c-1.021-0.679-2.044-1.424-3.064-2.105
	c-0.229-0.152-1.506-0.866-1.58-1.006c0-4.419,0-8.841,0-13.261C7.81,8.356,8.179,8.013,8.569,7.753
	c0.917-0.612,1.828-1.219,2.729-1.82C11.979,5.479,13.109,4.96,13.644,4.402z"/>
<path fill="#FFFFFF" d="M18.191,19.627c2.205-0.257,4.334-3.025,3.447-5.746c-0.51-1.563-1.724-2.759-3.447-3.111
	c0-0.575,0-1.149,0-1.724c0.053-0.044,0.004,0.004,0.047-0.048c2.355,0.452,4.058,1.814,4.886,3.782
	c1.726,4.099-1.347,8.186-4.886,8.618C18.091,20.952,18.188,20.164,18.191,19.627z"/>
<path fill="#FFFFFF" d="M5.505,9.812c0,3.59,0,7.182,0,10.772C3.881,20.6,2.018,20.811,1.34,19.866
	c-0.405-0.563-0.335-1.563-0.335-2.537c0-1.47,0-2.937,0-4.406c0-1.27-0.008-2.254,0.718-2.776C2.466,9.612,4.257,9.8,5.505,9.812z"
	/>
</svg>
