<?xml version="1.0" encoding="utf-8"?>
<!-- Generator: Adobe Illustrator 16.0.0, SVG Export Plug-In . SVG Version: 6.00 Build 0)  -->
<!DOCTYPE svg PUBLIC "-//W3C//DTD SVG 1.1//EN" "http://www.w3.org/Graphics/SVG/1.1/DTD/svg11.dtd">
<svg version="1.1" id="图层_1" xmlns="http://www.w3.org/2000/svg" xmlns:xlink="http://www.w3.org/1999/xlink" x="0px" y="0px"
	 width="30px" height="30px" viewBox="0 0 30 30" enable-background="new 0 0 30 30" xml:space="preserve">
<path fill-rule="evenodd" clip-rule="evenodd" d="M22.195,2.85c0.32-0.013,0.738-0.031,0.92,0.092
	c1.076,0.381,1.859,1.793,2.487,2.67c1.149,1.607,1.986,3.402,2.579,5.619c1.041,3.899-0.486,8.355-1.935,10.685
	c-0.854,1.374-2.134,3.838-4.143,3.684c-0.173-0.23-0.438-0.527-0.646-0.737c-0.029-0.417-0.128-0.619,0.093-0.921
	c0.257-0.76,1.537-1.621,2.025-2.303c1.452-2.019,3.136-6.248,2.119-10.039c-0.508-1.893-1.293-3.569-2.304-4.974
	c-0.543-0.757-1.802-1.297-1.934-2.395c-0.104-0.172-0.05-0.462,0.093-0.645C21.682,3.201,21.948,3.104,22.195,2.85z"/>
<path fill-rule="evenodd" clip-rule="evenodd" d="M10.775,17.126c-5.648-0.191-8.06,2.742-8.013,8.473
	c-0.276,0.03-0.553,0.062-0.829,0.092c-0.097-1.262-0.591-2.883-0.276-4.329c0.26-1.195,0.196-2.491,0.553-3.591
	c1.244-3.833,3.823-6.7,8.566-7c0-1.842,0-3.685,0-5.526c0.03,0,0.061,0,0.092,0c2.118,2.149,4.236,4.298,6.354,6.447
	c0.613,0.612,2.109,1.693,2.396,2.487c-2.948,2.917-5.896,5.833-8.842,8.75C10.775,20.993,10.775,19.059,10.775,17.126z"/>
<path fill-rule="evenodd" clip-rule="evenodd" d="M19.247,7.178c2.209,0.817,4.521,5.557,3.593,9.211
	c-0.606,2.378-1.624,3.899-3.132,5.341c-0.763,0.025-1.099-0.11-1.382-0.552c-0.185-0.233-0.192-0.573-0.183-1.013
	c1.653-1.679,3.298-5.146,1.935-8.382c-0.527-1.248-1.988-2.193-2.027-3.685c0.256-0.263,0.488-0.564,0.737-0.829
	C19.021,7.263,19.13,7.259,19.247,7.178z"/>
</svg>
